<?xml version="1.0" encoding="utf-8"?>
<!-- Generator: Adobe Illustrator 16.0.0, SVG Export Plug-In . SVG Version: 6.00 Build 0)  -->
<!DOCTYPE svg PUBLIC "-//W3C//DTD SVG 1.1//EN" "http://www.w3.org/Graphics/SVG/1.1/DTD/svg11.dtd">
<svg version="1.1" id="Layer_1" xmlns="http://www.w3.org/2000/svg" xmlns:xlink="http://www.w3.org/1999/xlink" x="0px" y="0px"
	 width="219px" height="36.741px" viewBox="0 0 219 36.741" enable-background="new 0 0 219 36.741" xml:space="preserve">
<g>
	<g>
		<path fill-rule="evenodd" clip-rule="evenodd" fill="#660099" d="M12.063,33.134h1.958c0.33,0,1.59-0.172,2.286-1.438l8.1-14.354
			c0.831-1.521-0.148-2.811-1.014-3.131l-2.154-0.965c-1.16-0.518-2.553,0.03-3.075,1.243l-5.085,10.216H13l-5.08-10.216
			c-0.523-1.212-1.917-1.761-3.075-1.243L2.692,14.21c-0.866,0.32-1.847,1.61-1.016,3.131l8.102,14.354
			C10.472,32.961,11.734,33.134,12.063,33.134"/>
		<path fill-rule="evenodd" clip-rule="evenodd" fill="#660099" d="M47.652,33.134h1.956c0.331,0,1.592-0.172,2.287-1.438
			l8.101-14.354c0.83-1.521-0.149-2.811-1.015-3.131l-2.155-0.965c-1.16-0.518-2.55,0.03-3.074,1.243l-5.087,10.216h-0.076
			l-5.082-10.216c-0.523-1.212-1.916-1.761-3.075-1.243L38.28,14.21c-0.867,0.32-1.847,1.61-1.015,3.131l8.099,14.354
			C46.059,32.961,47.32,33.134,47.652,33.134"/>
		<path fill="#660099" d="M71.42,13.119c-5.582,0-10.108,4.528-10.108,10.108c0,5.583,4.526,10.11,10.108,10.11
			c5.586,0,10.111-4.527,10.111-10.11C81.531,17.646,77.006,13.119,71.42,13.119 M71.42,27.218c-2.202,0-3.989-1.787-3.989-3.991
			c0-2.204,1.788-3.991,3.989-3.991c2.203,0,3.991,1.787,3.991,3.991C75.411,25.431,73.623,27.218,71.42,27.218"/>
		<path fill="#660099" d="M34.792,7.364c0,2.188-1.774,3.96-3.962,3.96c-2.189,0-3.962-1.771-3.962-3.96s1.773-3.961,3.962-3.961
			C33.018,3.403,34.792,5.176,34.792,7.364"/>
		<path fill-rule="evenodd" clip-rule="evenodd" fill="#660099" d="M27.382,15.771c0-1.35,1.092-2.442,2.442-2.442h2.043
			c1.35,0,2.445,1.092,2.445,2.442V30.69c0,1.351-1.095,2.444-2.445,2.444h-2.043c-1.35,0-2.442-1.093-2.442-2.444V15.771z"/>
	</g>
	<path fill="#660099" d="M107.798,7.348c0,1.248-0.443,3.196-1.817,4.572c-0.485,0.483-0.903,0.774-1.239,0.988
		c-0.647,0.421-1.115,0.711-0.854,1.41c0.256,0.686,1.056,0.473,1.81,0.302c0.243-0.058,4.986-1.192,5.045-1.196
		c1.275-0.241,2.504,0.565,2.803,1.811c0,0.006,0.38,1.589,0.384,1.604c0.3,1.246-0.43,2.523-1.673,2.889
		c-0.054,0.024-5.236,1.269-5.245,1.272c-0.983,0.251-1.561,0.74-1.561,1.689c0,0.425,0.246,0.884,0.548,1.266
		c0,0,5.632,6.979,5.661,7.033c0.766,1.046,0.57,2.504-0.426,3.312c-0.002,0.003-1.268,1.028-1.28,1.038
		c-0.994,0.808-2.46,0.702-3.327-0.263c-0.044-0.039-3.541-4.336-3.912-4.792c-0.372-0.455-0.837-1.148-1.485-1.148
		c-0.647,0-1.114,0.693-1.484,1.148c-0.372,0.456-3.869,4.753-3.912,4.792c-0.868,0.965-2.334,1.071-3.329,0.263
		c-0.011-0.01-1.276-1.035-1.28-1.038c-0.997-0.808-1.191-2.266-0.426-3.312c0.029-0.053,5.66-7.033,5.66-7.033
		c0.302-0.382,0.549-0.841,0.549-1.266c0-0.949-0.575-1.438-1.561-1.689c-0.01-0.003-5.191-1.248-5.246-1.272
		c-1.242-0.366-1.972-1.643-1.672-2.889c0.003-0.015,0.383-1.598,0.383-1.604c0.3-1.246,1.53-2.052,2.804-1.811
		c0.06,0.003,4.802,1.138,5.045,1.196c0.756,0.171,1.555,0.383,1.811-0.302c0.259-0.698-0.208-0.988-0.853-1.41
		c-0.336-0.214-0.755-0.505-1.239-0.988c-1.374-1.376-1.818-3.325-1.818-4.572c0-3.582,2.986-6.485,6.568-6.485
		C104.811,0.863,107.798,3.767,107.798,7.348"/>
</g>
</svg>
